# xmcd
#
# Track frame offsets:
# 150
# 18170
# 40285
# 57375
# 87775
# 114122
# 132130
# 153565
# 178320
# 201587
# 222107
# 244770
#
# Disc length: 3534 seconds
#
#
# Revision: 0
# Processed by: cddbd v1.5.1PL0 Copyright (c) Steve Scherf et al.
# Submitted via: FreeRIP 2.941 
#
DISCID=a30dcc0c
DTITLE=Sweet Daddy Cool Breeze - Don´t pass me by
DYEAR=1994
DGENRE=Blues
TTITLE0=Pass me by
TTITLE1=Foolish Girl
TTITLE2=Hook
TTITLE3=Deep in the Cosmos
TTITLE4=Be with you
TTITLE5=Killin´ floor
TTITLE6=Lonely Tears
TTITLE7=Built for Comfort
TTITLE8=Help me
TTITLE9=Cross cut saw
TTITLE10=Hard Times
TTITLE11=Boogie thing
EXTD=
EXTT0=
EXTT1=
EXTT2=
EXTT3=
EXTT4=
EXTT5=
EXTT6=
EXTT7=
EXTT8=
EXTT9=
EXTT10=
EXTT11=
PLAYORDER=
